<?xml version="1.0" encoding="utf-8"?>
<!-- Generator: Adobe Illustrator 26.5.0, SVG Export Plug-In . SVG Version: 6.00 Build 0)  -->
<svg version="1.1" id="Layer_1" xmlns="http://www.w3.org/2000/svg" xmlns:xlink="http://www.w3.org/1999/xlink" x="0px" y="0px"
	 viewBox="0 0 3627.3 1080" enable-background="new 0 0 3627.3 1080" xml:space="preserve">
<g>
	<g>
		<g>
			<g>
				<path d="M1325.11,788.95c-35.59,0-68.57-6.2-98.97-18.58s-56.98-29.83-79.72-52.36c-22.75-22.52-40.43-48.75-53.03-78.71
					c-12.61-29.94-18.92-62.26-18.92-96.94c0-34.68,6.3-66.99,18.92-96.95c12.6-29.95,30.17-55.96,52.7-78.03
					c22.52-22.06,48.98-39.29,79.38-51.68c30.4-12.38,63.39-18.58,98.97-18.58c37.83,0,71.5,6.08,101,18.24
					c29.49,12.16,55.28,28.83,77.35,49.99l-70.94,71.61c-12.61-13.51-27.82-24.09-45.6-31.75c-17.8-7.65-38.4-11.48-61.82-11.48
					c-20.72,0-39.75,3.49-57.09,10.47c-17.34,6.99-32.21,17-44.59,30.06c-12.39,13.07-22.07,28.83-29.05,47.29
					c-6.99,18.47-10.47,38.74-10.47,60.8c0,22.52,3.48,43.01,10.47,61.47c6.98,18.48,16.66,34.23,29.05,47.29
					c12.38,13.07,27.25,23.2,44.59,30.4c17.33,7.21,36.36,10.81,57.09,10.81c24.32,0,45.49-3.82,63.51-11.48
					c18.01-7.66,33.55-18.24,46.62-31.76l71.61,71.61c-22.97,21.18-49.21,37.83-78.7,49.99
					C1397.96,782.87,1363.84,788.95,1325.11,788.95z"/>
				<path d="M1535.89,781.52V291.05h103.37v490.47H1535.89z"/>
				<path d="M1920.96,453.19v27.14c-8.85-8.41-19.08-15.45-30.74-21.06c-17.8-8.55-37.73-12.84-59.79-12.84
					c-30.18,0-57.09,7.43-80.73,22.29c-23.65,14.86-42.34,35.13-56.07,60.8c-13.74,25.67-20.61,54.95-20.61,87.83
					c0,32.88,6.86,62.15,20.61,87.83c13.73,25.67,32.43,45.94,56.07,60.8c23.64,14.86,50.55,22.29,80.73,22.29
					c22.06,0,42.11-4.29,60.13-12.84c11.58-5.5,21.7-12.37,30.4-20.57v26.65h101.34V453.19H1920.96z M1851.38,695.05
					c-13.97,0-26.58-3.38-37.83-10.13c-11.26-6.76-20.05-15.98-26.35-27.7c-6.31-11.71-9.46-24.99-9.46-39.86
					c0-15.31,3.26-28.82,9.8-40.53c6.52-11.71,15.31-20.83,26.35-27.36c11.03-6.52,23.75-9.8,38.17-9.8
					c14.41,0,27.13,3.27,38.17,9.8c11.03,6.54,19.59,15.66,25.67,27.36c6.08,11.72,9.12,25.23,9.12,40.53
					c0,22.53-6.76,41.11-20.27,55.74C1891.24,687.73,1873.44,695.05,1851.38,695.05z"/>
				<polygon points="2292.53,453.19 2222.26,656.44 2152.01,453.19 2040.53,453.19 2179.7,781.52 2262.8,781.52 2401.97,453.19 				
					"/>
				<path d="M2710.37,524.8c-14.19-24.76-33.67-44.14-58.44-58.1c-24.78-13.95-53.37-20.94-85.8-20.94
					c-33.34,0-63.28,7.43-89.85,22.29c-26.58,14.86-47.63,35.25-63.17,61.14c-15.54,25.91-23.31,55.29-23.31,88.16
					c0,32.88,7.87,62.39,23.65,88.5c15.76,26.12,37.49,46.51,65.19,61.14c27.7,14.63,59.34,21.96,94.92,21.96
					c27.47,0,52.7-4.73,75.67-14.19c22.97-9.46,42.56-23.65,58.78-42.56l-56.75-56.75c-9.91,11.26-21.39,19.71-34.45,25.33
					c-13.07,5.64-27.7,8.45-43.91,8.45c-17.57,0-32.77-3.72-45.6-11.15c-12.84-7.43-22.75-18.01-29.72-31.75
					c-2.32-4.56-4.22-9.46-5.77-14.64l235.13-0.56c1.79-8.55,3.04-16.1,3.71-22.63c0.68-6.53,1.02-12.72,1.02-18.58
					C2731.66,577.95,2724.56,549.58,2710.37,524.8z M2524.59,535.95c11.93-7.43,26.01-11.15,42.22-11.15
					c15.31,0,28.26,3.27,38.85,9.8c10.58,6.53,18.58,15.99,23.98,28.37c2.27,5.2,4.07,11.01,5.47,17.36l-143.3,0.41
					c1.39-4.73,3.06-9.21,5.08-13.38C2503.41,553.85,2512.65,543.38,2524.59,535.95z"/>
				<path d="M2992.09,453.52c-11.94-4.73-25.79-7.09-41.55-7.09c-36.04,0-64.18,10.59-84.45,31.75v-25h-103.37v328.33h103.37V601.14
					c0-21.17,5.07-37.04,15.2-47.63c10.13-10.58,23.75-15.87,40.87-15.87c8.55,0,16.21,1.35,22.97,4.05
					c6.76,2.7,12.38,6.53,16.89,11.48l61.48-77.69C3014.49,465.58,3004.02,458.25,2992.09,453.52z"/>
				<path d="M3031.61,781.52V453.19h103.37v328.33H3031.61z"/>
				<path d="M3347.09,788.95c-33.78,0-64.29-7.54-91.54-22.63c-27.25-15.08-48.76-35.69-64.52-61.81
					c-15.77-26.12-23.65-55.4-23.65-87.83s7.87-61.48,23.65-87.15c15.76-25.67,37.15-46.04,64.18-61.14
					c27.02-15.08,57.65-22.63,91.88-22.63c34.22,0,64.86,7.43,91.88,22.29c27.02,14.86,48.41,35.25,64.18,61.14
					c15.76,25.91,23.64,55.06,23.64,87.49s-7.89,61.71-23.64,87.83c-15.77,26.12-37.16,46.73-64.18,61.81
					C3411.95,781.41,3381.32,788.95,3347.09,788.95z M3347.09,695.05c14.86,0,27.92-3.26,39.19-9.8
					c11.25-6.52,19.93-15.76,26.01-27.7c6.08-11.93,9.12-25.56,9.12-40.87c0-15.31-3.16-28.71-9.46-40.19
					c-6.31-11.49-14.98-20.49-26.01-27.03c-11.04-6.52-23.98-9.8-38.85-9.8c-14.42,0-27.25,3.27-38.51,9.8
					c-11.26,6.54-20.05,15.66-26.35,27.36c-6.31,11.72-9.46,25.23-9.46,40.53c0,14.87,3.14,28.27,9.46,40.2
					c6.3,11.94,15.09,21.18,26.35,27.7C3319.84,691.78,3332.67,695.05,3347.09,695.05z"/>
			</g>
		</g>
	</g>
	<g>
		<linearGradient id="SVGID_1_" gradientUnits="userSpaceOnUse" x1="100.7165" y1="429.54" x2="532.1235" y2="429.54">
			<stop  offset="0" style="stop-color:#3774DF"/>
			<stop  offset="1" style="stop-color:#003DAB"/>
		</linearGradient>
		<path fill="url(#SVGID_1_)" d="M131.74,614.22L131.74,614.22c-41.36-41.36-41.36-108.43,0-149.79l219.58-219.58
			c41.36-41.36,108.42-41.36,149.79,0l0,0c41.36,41.36,41.36,108.42,0,149.79L281.53,614.22
			C240.16,655.58,173.1,655.58,131.74,614.22z"/>
		
			<linearGradient id="SVGID_00000147191255101590266770000003732361047270040470_" gradientUnits="userSpaceOnUse" x1="100.4987" y1="649.4445" x2="531.9058" y2="649.4445">
			<stop  offset="8.524463e-08" style="stop-color:#003DAB"/>
			<stop  offset="1" style="stop-color:#3774DF"/>
		</linearGradient>
		<path fill="url(#SVGID_00000147191255101590266770000003732361047270040470_)" d="M131.52,464.76L131.52,464.76
			c-41.36,41.36-41.36,108.42,0,149.79L351.1,834.13c41.36,41.36,108.42,41.36,149.79,0l0,0c41.36-41.36,41.36-108.42,0-149.79
			L281.31,464.76C239.95,423.4,172.88,423.4,131.52,464.76z"/>
		
			<linearGradient id="SVGID_00000086678711762268380380000005444893024792050818_" gradientUnits="userSpaceOnUse" x1="651.7717" y1="734.862" x2="914.3747" y2="734.862">
			<stop  offset="8.524463e-08" style="stop-color:#003DAB"/>
			<stop  offset="1" style="stop-color:#3774DF"/>
		</linearGradient>
		<path fill="url(#SVGID_00000086678711762268380380000005444893024792050818_)" d="M682.79,634.58L682.79,634.58
			c-41.36,41.36-41.36,108.42,0,149.79l50.77,50.77c41.36,41.36,108.42,41.36,149.79,0l0,0c41.36-41.36,41.36-108.42,0-149.79
			l-50.77-50.77C791.22,593.22,724.16,593.22,682.79,634.58z"/>
		
			<linearGradient id="SVGID_00000096030960017338968830000001134034003043561137_" gradientUnits="userSpaceOnUse" x1="482.2827" y1="429.54" x2="913.6897" y2="429.54">
			<stop  offset="0" style="stop-color:#3774DF"/>
			<stop  offset="1" style="stop-color:#003DAB"/>
		</linearGradient>
		<path fill="url(#SVGID_00000096030960017338968830000001134034003043561137_)" d="M513.3,614.22L513.3,614.22
			c-41.36-41.36-41.36-108.43,0-149.79l219.58-219.58c41.36-41.36,108.42-41.36,149.79,0l0,0c41.36,41.36,41.36,108.42,0,149.79
			L663.09,614.22C621.73,655.58,554.67,655.58,513.3,614.22z"/>
	</g>
</g>
</svg>
